<svg id="Layer_1" data-name="Layer 1" xmlns="http://www.w3.org/2000/svg" viewBox="0 0 248.41 175.82"><defs><style>.cls-1,.cls-2,.cls-4{fill:none;}.cls-1,.cls-2,.cls-3,.cls-4{stroke:#07f9fe;stroke-miterlimit:10;}.cls-1,.cls-2,.cls-3{stroke-width:3px;}.cls-2{opacity:0.5;}.cls-3,.cls-5{fill:#07f9fe;}.cls-3{opacity:0.8;}.cls-4{stroke-width:2px;}</style></defs><circle class="cls-1" cx="165.41" cy="92.82" r="81.5"/><path class="cls-2" d="M171.2,202.42a67.51,67.51,0,1,1,67.51-67.51" transform="translate(-5.8 -42.09)"/><path class="cls-3" d="M172.72,177v29.11c4.68,0,30.1-.47,50.43-20.89,19.92-20,20.43-44.57,20.43-49.36l-31.28,1.27c.27,2.11,1.89,16.64-8.94,28.47C191.36,178.69,174.45,177.14,172.72,177Z" transform="translate(-5.8 -42.09)"/><line class="cls-4" y1="10.26" x2="60" y2="10.26"/><polyline class="cls-4" points="22 1.26 68 1 104.98 32.99"/><path class="cls-5" d="M175.15,112.59a6.42,6.42,0,0,0,1.64,0,6.08,6.08,0,0,0,1.71-.85,16.64,16.64,0,0,0,1.4-1.25c.6-.54,1-.44,1.33.3a1.42,1.42,0,0,0,2.34.66,2.78,2.78,0,0,1,.79-.29c.14,0,.35,0,.44-.09.67-.63,1.38-.2,2-.07s.89.55.73,1.27c-.08.38,0,.57.4.62,1.12.15,1.46,1,1.8,2a1.67,1.67,0,0,1-.09.83c0,.15-.18.28-.2.42a5,5,0,0,0,0,.77,2.34,2.34,0,0,0,.62-.29c.71-.6.69-.56,1.31.12a2.37,2.37,0,0,1,.41,2.92,2.72,2.72,0,0,0-.18,1.2c0,.61.37.91,1,.71a4.34,4.34,0,0,0,1.41-.78c1-.88,2-1.82,2.92-2.76a.7.7,0,0,0,.16-.65c-.62-1.16.32-1.89,1.25-2.13.45-.11.92-.16,1.37-.28a1.54,1.54,0,0,0,1.33-1.73,1.55,1.55,0,0,0,0-.21,2.53,2.53,0,0,1,.29-1.46,3.8,3.8,0,0,1,3.09-2.43,12.47,12.47,0,0,0,1.91-.71,6.23,6.23,0,0,0,2.17-1.81c.12-.13.1-.43.1-.66,0-1.15-.07-2.29,0-3.41,0-1.3,1.64-1.79,2.6-1.57a1,1,0,0,1,.57.54,8.65,8.65,0,0,0,2.73,3.57.69.69,0,0,1,.11.66,10.79,10.79,0,0,1-1.31,1.89,9.45,9.45,0,0,0-2.19,2.77,3.26,3.26,0,0,0,.38,2.92,1,1,0,0,0,1.06.49,2.11,2.11,0,0,1,.76.24,2.44,2.44,0,0,1-.49.62,9.32,9.32,0,0,1-1.12.61,2.27,2.27,0,0,0-1.19,1.46,3.35,3.35,0,0,1-1.75,2,1.27,1.27,0,0,0-.77,1.36,6.86,6.86,0,0,1-.49,3,2.06,2.06,0,0,0,0,1.23,2.89,2.89,0,0,1,0,1.77c-.12.46-.19.93-.28,1.39H207l-.76-1.13a1.9,1.9,0,0,0,1.06,2.29.74.74,0,0,1,.34.58,1.61,1.61,0,0,0,.58,1.5.77.77,0,0,1,.09.69,2.65,2.65,0,0,0-.32,1.74.76.76,0,0,1-.09.55c-.7.89-1.41,1.77-2.14,2.64a11.3,11.3,0,0,0-1.34,1.51c-.92,1.61-1.77,3.26-2.6,4.92a3.76,3.76,0,0,0,.31,3.89,35.22,35.22,0,0,0,2.21,2.86c0,.06.13.11.14.18.18,1.34,1.43,1.94,2,3a4.45,4.45,0,0,1,.75,2.63,4,4,0,0,0,0,.49c0,1.22,0,1.25-1.15,1.67a.92.92,0,0,1-.77-.14c-1.21-1.07-2.4-2.16-3.56-3.29a4,4,0,0,1-1.32-3.06,1.23,1.23,0,0,0-.53-.86,25.58,25.58,0,0,0-2.22-1.28,1.4,1.4,0,0,0-1.86.28,1.45,1.45,0,0,1-1.9.29,3.5,3.5,0,0,0-2.76-.25c-1.18.29-2.39.52-3.58.78a2.9,2.9,0,0,0-.57.12.83.83,0,0,0-.64,1,.76.76,0,0,0,.16.34c.21.35.48.67.67,1a.72.72,0,0,1,.08.57.55.55,0,0,1-.51.11,2.34,2.34,0,0,0-2,0,3.1,3.1,0,0,1-2.31-.25,2.45,2.45,0,0,0-1.56,0,2.66,2.66,0,0,1-1.76,0,1.34,1.34,0,0,0-1.27.14,6.92,6.92,0,0,1-1.58.68c-.6.17-.85.66-1.13,1.12a2.77,2.77,0,0,1-1.3,1.16,4.23,4.23,0,0,0-2.76,3.85,5.37,5.37,0,0,0,.58,2c.21.58,0,1-.58,1.07-1.29.12-3.83-.85-4.18-2.46a3.51,3.51,0,0,0-1-1.58c-.69-.73-1.25-1.57-1.9-2.34s-1.15-1.53-2.17-1.76a1.73,1.73,0,0,0-2,.83c-.6,1-.6.94-1.66.73a2.85,2.85,0,0,1-2.43-1.88,5.78,5.78,0,0,0-1.81-2.25c-.54-.45-1.1-.88-1.67-1.27-.93-.68-2-.45-3-.35a.49.49,0,0,0-.33.22,1.51,1.51,0,0,1-1.46.63c-1,0-2.06,0-3.09,0a4.75,4.75,0,0,1-2.49-.67,14.94,14.94,0,0,0-1.75-.57q-2.07-1-4.07-2a4.08,4.08,0,0,0-2.2-.42l-1.63.08a1.15,1.15,0,0,1-1.25-.84,5.12,5.12,0,0,0-1.88-2.47c-.58-.42-1.11-.92-1.71-1.31a5.26,5.26,0,0,0-1.42-.61c-.63-.17-.82-.37-.89-1a3,3,0,0,0-.33-1.09c-.4-.77-.86-1.52-1.28-2.28a1.57,1.57,0,0,1-.18-.42c-.23-1-.42-2-.67-3a2.63,2.63,0,0,0-.55-1.06,2.81,2.81,0,0,1-.79-1.7,21.66,21.66,0,0,0-.42-3c-.34-1.39.14-2.7.27-4a9,9,0,0,0,0-1.27,20.49,20.49,0,0,1-.1-2.07,4.41,4.41,0,0,1,.41-1.19c.29-.74.63-1.46.85-2.22a28.56,28.56,0,0,0,.79-3.41,12.33,12.33,0,0,0,0-2.43c0-.79-.18-1.59-.22-2.38s.16-.81.79-.56,1.14.46,1.72.68a1.16,1.16,0,0,0,.82,0c.14-.1.13-.52.08-.78-.26-1.28-.23-1.26,1.07-1.08,2.19.32,4.38.59,6.6.8,3,.28,6,.62,9,.68,5,.09,10,.07,15-.09,2.86-.09,5.71-.54,8.57-.85a11.17,11.17,0,0,1,4.11.31,2,2,0,0,0,1.07-.07,1.77,1.77,0,0,1,1.46.09,3.31,3.31,0,0,0,2.2.38,7.35,7.35,0,0,1,1.62-.15,1,1,0,0,0,1.08-.62c.09-.16.32-.25.49-.39,0,.25.07.57,0,.72-.49.55-1,1.06-1.55,1.58s-1,1-1.54,1.5A2.11,2.11,0,0,0,175.15,112.59Z" transform="translate(-5.8 -42.09)"/></svg>