<svg id="Layer_1" data-name="Layer 1" xmlns="http://www.w3.org/2000/svg" viewBox="0 0 248.41 175.82"><defs><style>.cls-1,.cls-2,.cls-4{fill:none;}.cls-1,.cls-2,.cls-3,.cls-4{stroke:#07f9fe;stroke-miterlimit:10;}.cls-1,.cls-2,.cls-3{stroke-width:3px;}.cls-2{opacity:0.5;}.cls-3,.cls-5{fill:#07f9fe;}.cls-3{opacity:0.8;}.cls-4{stroke-width:2px;}</style></defs><circle class="cls-1" cx="165.41" cy="92.82" r="81.5"/><path class="cls-2" d="M171.2,202.42a67.51,67.51,0,1,1,67.51-67.51" transform="translate(-5.8 -42.09)"/><path class="cls-3" d="M172.72,177v29.11c4.68,0,30.1-.47,50.43-20.89,19.92-20,20.43-44.57,20.43-49.36l-31.28,1.27c.27,2.11,1.89,16.64-8.94,28.47C191.36,178.69,174.45,177.14,172.72,177Z" transform="translate(-5.8 -42.09)"/><line class="cls-4" y1="10.26" x2="60" y2="10.26"/><polyline class="cls-4" points="22 1.26 68 1 104.98 32.99"/><g id="Layer_1-2" data-name="Layer 1-2"><path class="cls-5" d="M186.27,172.41H175.39a.16.16,0,0,0-.09,0,1.57,1.57,0,0,1-1-.55c-1.25-1.51-2.51-3-3.76-4.51q-6.54-7.77-13.24-15.42c-3.14-3.57-6.32-7.1-9.58-10.57a1.57,1.57,0,0,1-.46-1.12V133.4a1.65,1.65,0,0,1,.09-.54,1.72,1.72,0,0,1,1.7-1.15h6.26a29.69,29.69,0,0,0,6.51-.69,16.68,16.68,0,0,0,5.13-2,10.21,10.21,0,0,0,4.51-5.46c.09-.25.16-.52.25-.8H149.06A1.62,1.62,0,0,1,147.3,121v-5.44a1.6,1.6,0,0,1,.61-1.28,1.86,1.86,0,0,1,1.23-.36H171c0-.07-.06-.13-.09-.18a8.74,8.74,0,0,0-2.16-2.64,12.33,12.33,0,0,0-4.54-2.29,25.34,25.34,0,0,0-6.88-.9q-4.11,0-8.22,0a1.8,1.8,0,0,1-1.8-1.79h0c0-1.83,0-3.65,0-5.47,0-.56,0-1.12,0-1.68a1.59,1.59,0,0,1,1.21-1.49l.24-.06h44.81l.08,0A1.59,1.59,0,0,1,195,99.05c0,1.86,0,3.71,0,5.57a1.58,1.58,0,0,1-.59,1.26,1.83,1.83,0,0,1-1.22.38H180.9a18.59,18.59,0,0,1,3.41,7.66h9.08a1.62,1.62,0,0,1,1.73,1.73V121a2.3,2.3,0,0,1-.09.64,1.6,1.6,0,0,1-1.6,1.09h-8.8c-.12,0-.17,0-.18.15,0,.33-.12.65-.18,1a20.24,20.24,0,0,1-2.63,6.69,20.74,20.74,0,0,1-8,7.33,29.29,29.29,0,0,1-10,3.09l-.71.1.18.21c2.75,2.93,5.42,5.92,8,9q4.74,5.53,9.44,11.14c2.29,2.74,4.54,5.52,6.81,8.27a1.64,1.64,0,0,1,.38.74,1.71,1.71,0,0,1-.33,1.26,1.36,1.36,0,0,1-.91.67Z" transform="translate(-5.8 -42.09)"/></g></svg>