<svg id="Layer_1" data-name="Layer 1" xmlns="http://www.w3.org/2000/svg" viewBox="0 0 247.76 174.23"><defs><style>.cls-1,.cls-2,.cls-4{fill:none;}.cls-1,.cls-2,.cls-3,.cls-4{stroke:#07f9fe;stroke-miterlimit:10;}.cls-1,.cls-2,.cls-3{stroke-width:3px;}.cls-2{opacity:0.5;}.cls-3,.cls-5{fill:#07f9fe;}.cls-3{opacity:0.8;}.cls-4{stroke-width:2px;}</style></defs><circle class="cls-1" cx="164.76" cy="91.23" r="81.5"/><path class="cls-2" d="M170.56,200.83a67.51,67.51,0,1,1,67.51-67.51" transform="translate(-5.8 -42.09)"/><path class="cls-3" d="M172.08,175.37v29.11c4.68,0,30.1-.47,50.43-20.88,19.92-20,20.43-44.57,20.43-49.36l-31.28,1.26c.27,2.12,1.89,16.65-8.94,28.48C190.72,177.1,173.81,175.56,172.08,175.37Z" transform="translate(-5.8 -42.09)"/><line class="cls-4" y1="10.26" x2="60" y2="10.26"/><polyline class="cls-4" points="22 1.26 68 1 104.98 32.99"/><g id="participants"><g id="Layer_1-2" data-name="Layer 1-2"><path class="cls-5" d="M207.6,142.28a5.92,5.92,0,0,1-1.27.28q-13.32,0-26.64,0a.74.74,0,0,1-.26,0c1.15-2.23,2.32-4.53,3.51-6.81a.94.94,0,0,1,.45-.45c2-.8,3.85-2.08,6.3-1.05a8.89,8.89,0,0,0,6.26-.12,4.59,4.59,0,0,1,2.41-.08,22.48,22.48,0,0,1,9.24,5.32Z" transform="translate(-5.8 -42.09)"/><path class="cls-5" d="M133.53,139.35a13.27,13.27,0,0,0,1.14-.83A20.3,20.3,0,0,1,143,134a4,4,0,0,1,2.16.07,10.34,10.34,0,0,0,7.15,0c2-.77,5.11.7,6,2.63s2.14,3.91,3.26,5.91H135.32a11.21,11.21,0,0,1-1.8-.28Z" transform="translate(-5.8 -42.09)"/><path class="cls-5" d="M171.9,90.86c2,1,3.65,2.35,4,4.74.19,1.32.25,2.66.37,4a.57.57,0,0,1,0,.26,30.36,30.36,0,0,1-2.49,4.39c-2.3,2.87-6.14,2-7.68-1.7-.35-.82-.83-1.58-1.23-2.37a1.27,1.27,0,0,1-.17-.63c.08-1.2.16-2.4.3-3.6.3-2.63,1.93-4.17,4.28-5.08Z" transform="translate(-5.8 -42.09)"/><path class="cls-5" d="M170.37,161.78H146.66c-1.76,0-1.72-.19-2-1.88-.42-2.78.79-4.52,2.91-6.12a37.79,37.79,0,0,1,14.08-7,3.8,3.8,0,0,1,2.16.18,17,17,0,0,0,13.22,0,3.94,3.94,0,0,1,2.28-.15A36.46,36.46,0,0,1,195,155.27a3.11,3.11,0,0,1,1.19,2.63c-.09,4.34.51,3.87-4,3.88Z" transform="translate(-5.8 -42.09)"/><path class="cls-5" d="M182.07,124.19c-.07.66-.1,1.33-.21,2-.18,1-.46,1.91.42,2.89a1.82,1.82,0,0,1-.81,2.78c-.83.33-.95.86-1.09,1.59a12.72,12.72,0,0,1-4.53,7.76,8.19,8.19,0,0,1-10.86-.05,12.76,12.76,0,0,1-4.49-7.78c-.13-.69-.24-1.17-1-1.49a2,2,0,0,1-1.08-2.54,2,2,0,0,1,.37-.58,1.82,1.82,0,0,0,.39-1.88c-1.35-6.48,2.23-12.84,8.17-14.58,7-2.05,14.15,3.23,14.65,10.83,0,.35,0,.71,0,1.06Z" transform="translate(-5.8 -42.09)"/><path class="cls-5" d="M192.5,113c4.16,0,7.38,4,6.72,8.3a11.77,11.77,0,0,0,.2,1.73,3.6,3.6,0,0,1-.21,1.45,13.86,13.86,0,0,1-1,1.83.65.65,0,0,0,0,.13c-.89,3-3.25,5-5.75,4.9s-4.7-2.16-5.55-5a15.29,15.29,0,0,0-1-1.84c-.18-.37-.43-1-.27-1.19.73-.82.29-1.67.23-2.51C185.49,116.54,188.52,113,192.5,113Z" transform="translate(-5.8 -42.09)"/><path class="cls-5" d="M148.83,113a7,7,0,0,1,6.65,7.76c-.08.85-.39,1.69.25,2.52a1.22,1.22,0,0,1-.26,1.15c-.91.42-.9,1.24-1.11,2,0,.09,0,.17-.07.26-.9,2.75-3.17,4.67-5.52,4.68s-4.73-1.93-5.61-4.75c-.25-.81-.25-1.71-1.2-2.2-.22-.11-.23-.79-.2-1.2a15.25,15.25,0,0,0,.25-2.09C141.64,116.63,144.7,113,148.83,113Z" transform="translate(-5.8 -42.09)"/><path class="cls-5" d="M157.8,113.25a6.31,6.31,0,0,1,1.15-1.72,36.47,36.47,0,0,1,4.57-2.92,6.12,6.12,0,0,1,4.95-.56c1.45.44,3.19-.07,4.8-.15a6.68,6.68,0,0,1,2,0,17.86,17.86,0,0,1,6.81,3.74c1,.83.72,1.84.64,2.8-.06.58-1.82.69-2.45.16a7.23,7.23,0,0,1-.55-.56,12.93,12.93,0,0,0-18.7,0,3.25,3.25,0,0,1-1.53.81C158.45,115.06,157.77,114.69,157.8,113.25Z" transform="translate(-5.8 -42.09)"/></g></g></svg>