<svg id="Layer_1" data-name="Layer 1" xmlns="http://www.w3.org/2000/svg" viewBox="0 0 248.67 174.32"><defs><style>.cls-1,.cls-2,.cls-4{fill:none;}.cls-1,.cls-2,.cls-3,.cls-4{stroke:#07f9fe;stroke-miterlimit:10;}.cls-1,.cls-2,.cls-3{stroke-width:3px;}.cls-2{opacity:0.5;}.cls-3,.cls-5{fill:#07f9fe;}.cls-3{opacity:0.8;}.cls-4{stroke-width:2px;}</style></defs><circle class="cls-1" cx="165.67" cy="91.32" r="81.5"/><path class="cls-2" d="M171.46,200.92A67.51,67.51,0,1,1,239,133.41" transform="translate(-5.8 -42.09)"/><path class="cls-3" d="M173,175.46v29.11c4.68,0,30.1-.47,50.43-20.88,19.93-20,20.43-44.57,20.43-49.36l-31.28,1.26c.27,2.12,1.89,16.64-8.93,28.48C191.62,177.19,174.71,175.65,173,175.46Z" transform="translate(-5.8 -42.09)"/><line class="cls-4" y1="10.26" x2="60" y2="10.26"/><polyline class="cls-4" points="22 1.26 68 1 104.98 32.99"/><g id="Layer_2" data-name="Layer 2"><g id="Layer_1-2" data-name="Layer 1-2"><path class="cls-5" d="M134.33,155.22c.9-3.84,3.6-6.24,6.62-8.39a60,60,0,0,1,13.52-6.89c2.76-1.07,3.9-3.07,3.19-5.94a5.76,5.76,0,0,0-1.21-2.17c-5.74-7-8.55-14.83-7-23.89,1.38-8.17,8.11-13.52,16.58-13.43s15.12,5.51,16.38,13.69c1.37,8.89-1.29,16.68-6.95,23.49a6.62,6.62,0,0,0-1.49,4.58,3.56,3.56,0,0,0,2.81,3.64c.4.13.79.28,1.48.53-1,1-1.92,1.84-2.8,2.7-2.12,2.11-4.32,4.15-6.31,6.37a11,11,0,0,0-2.22,3.71c-1.2,3.54-2.25,7.13-3.2,10.75a23.8,23.8,0,0,0-.35,4.33h-2.57c-1.27-.11-2.54-.23-3.8-.32-5.54-.42-11.07-.92-16.29-3-3.13-1.23-5.68-3-6.37-6.63Z" transform="translate(-5.8 -42.09)"/><path class="cls-5" d="M169.61,168.31a7.1,7.1,0,0,1-.31-2.48c.91-3.57,2-7.11,3-10.64a3.92,3.92,0,0,1,.85-1.58q8.21-8.18,16.46-16.3a3.65,3.65,0,0,1,.45-.32l10.2,10.62c-2.17,2.21-4.53,4.66-6.94,7.07-3.05,3-6.1,6.08-9.22,9.06a6.25,6.25,0,0,1-2.36,1.41c-3,.95-6.09,1.76-9.13,2.65a12,12,0,0,0-1.29.52ZM175,156.57c-.51,1.72-1.09,3.62-1.61,5.53-.22.81.92,2.12,1.72,1.92,2-.51,4-1.13,5.6-1.61-.31-1.8-.58-3.42-.86-5Z" transform="translate(-5.8 -42.09)"/><path class="cls-5" d="M208.6,138.14l-2.35,3.4-10.31-10.41c.39-.35.94-.87,1.51-1.35a3.35,3.35,0,0,1,4.55-.08c1.95,1.79,3.8,3.7,5.63,5.61a8.07,8.07,0,0,1,1,1.7Z" transform="translate(-5.8 -42.09)"/><path class="cls-5" d="M192,135l1.84-1.94,10.62,10.61-2.09,1.86Z" transform="translate(-5.8 -42.09)"/></g></g></svg>