<svg id="Layer_1" data-name="Layer 1" xmlns="http://www.w3.org/2000/svg" viewBox="0 0 248 174.31"><defs><style>.cls-1,.cls-2,.cls-4{fill:none;}.cls-1,.cls-2,.cls-3,.cls-4{stroke:#07f9fe;stroke-miterlimit:10;}.cls-1,.cls-2,.cls-3{stroke-width:3px;}.cls-2{opacity:0.5;}.cls-3,.cls-5{fill:#07f9fe;}.cls-3{opacity:0.8;}.cls-4{stroke-width:2px;}</style></defs><circle class="cls-1" cx="165" cy="91.31" r="81.5"/><path class="cls-2" d="M170.8,200.91a67.51,67.51,0,1,1,67.51-67.51" transform="translate(-5.8 -42.09)"/><path class="cls-3" d="M172.32,175.45v29.11c4.67,0,30.1-.47,50.43-20.88,19.92-20,20.42-44.57,20.42-49.36l-31.28,1.26c.28,2.12,1.89,16.65-8.93,28.48C191,177.18,174.05,175.64,172.32,175.45Z" transform="translate(-5.8 -42.09)"/><line class="cls-4" y1="10.26" x2="60" y2="10.26"/><polyline class="cls-4" points="22 1.26 68 1 104.98 32.99"/><g id="Layer_2" data-name="Layer 2"><g id="Layer_1-2" data-name="Layer 1-2"><path class="cls-5" d="M170.53,86.51a1.15,1.15,0,0,0,.25.12A9.1,9.1,0,0,1,178,92.7a9.21,9.21,0,0,1,.41,4.07,8.68,8.68,0,0,1-1.12,3.36,9.08,9.08,0,0,1-6.28,4.46,10.72,10.72,0,0,1-2,.15,8.65,8.65,0,0,1-2.89-.58,9.1,9.1,0,0,1-5.53-5.9,8.91,8.91,0,0,1-.23-4.32,9,9,0,0,1,4-5.94,9.26,9.26,0,0,1,3.11-1.3c.16,0,.34,0,.5-.08a1,1,0,0,0,.21-.11Z" transform="translate(-5.8 -42.09)"/><path class="cls-5" d="M169.42,140.82c0,.21-.12.41-.16.62l-.57,2.87c-.18.87-.34,1.74-.51,2.6s-.36,1.75-.53,2.62c-.13.61-.24,1.23-.36,1.84s-.25,1.26-.38,1.89-.25,1.24-.37,1.85l-.38,1.89c-.12.62-.24,1.24-.37,1.85s-.25,1.25-.38,1.9l-.37,1.89c-.13.63-.25,1.25-.38,1.87s-.24,1.27-.38,1.9c-.2.93-.35,1.88-.63,2.79a4.14,4.14,0,0,1-1.63,2.18,4.72,4.72,0,0,1-7.45-4.14,16.63,16.63,0,0,1,.3-1.74c.12-.69.26-1.37.39-2.06l.39-1.94.36-1.89c.13-.63.26-1.31.39-2s.24-1.25.35-1.87.25-1.3.38-1.94l.38-1.94c.12-.66.25-1.32.38-2s.25-1.27.37-1.91.25-1.29.38-1.94.25-1.26.37-1.89l.39-2c.18-.94.35-1.88.52-2.82.12-.73.23-1.47.32-2.2.13-1.16.26-2.3.34-3.47.07-1,.1-2.05.1-3.07,0-3.44,0-6.89,0-10.33a.66.66,0,0,0-.06-.2.61.61,0,0,0-.16.12c-.61.78-1.21,1.57-1.83,2.34a2,2,0,0,0-.33.72c-.17.65-.33,1.29-.51,1.93s-.35,1.31-.53,2-.34,1.29-.51,1.93-.35,1.31-.53,2c-.12.43-.23.86-.35,1.29a3.94,3.94,0,0,1-4.4,2.78,4,4,0,0,1-3.17-2.48,3.79,3.79,0,0,1-.15-2.57l1-3.61c.27-1,.56-2,.83-3l.81-3a7.43,7.43,0,0,1,1.49-2.8c1.37-1.67,2.7-3.38,4.06-5.08.64-.8,1.27-1.62,2-2.39a8.31,8.31,0,0,1,3.21-2.17,9.2,9.2,0,0,1,3.36-.64h8.43a8.1,8.1,0,0,0,2.45-.34,12.22,12.22,0,0,0,1.55-.62c.69-.32,1.36-.66,2-1l2.41-1.15,1.87-.9a2.07,2.07,0,0,0,1.17-1.54c.16-.74.37-1.48.56-2.22s.34-1.34.51-2,.35-1.35.53-2,.34-1.32.5-2l.54-2.08a9.56,9.56,0,0,1,.36-1.15,3.9,3.9,0,0,1,1.85-2,4.09,4.09,0,0,1,1.68-.46,3.86,3.86,0,0,1,3.21,1.38,4.33,4.33,0,0,1,1.06,3.63,11,11,0,0,1-.34,1.37l-.53,2.08c-.18.69-.36,1.38-.53,2.07l-.51,2c-.18.67-.34,1.35-.51,2-.13.48-.27,1-.38,1.44a9.71,9.71,0,0,1-2,4.09,10,10,0,0,1-3.37,2.58c-1.31.62-2.61,1.26-3.91,1.89-1,.46-1.93.94-2.91,1.38-.71.32-1.45.6-2.18.87a.29.29,0,0,0-.23.32c0,1,0,2,0,3v12.81a43.8,43.8,0,0,0,.34,5.72c.17,1.38.44,2.75.68,4.12.15.89.33,1.77.5,2.65s.36,1.77.53,2.65.34,1.77.51,2.65.36,1.76.53,2.64c.13.63.25,1.26.37,1.9s.24,1.22.36,1.83l.39,2c.12.62.25,1.24.38,1.87l.36,1.87.39,1.94c.12.64.25,1.27.37,1.91s.21,1.23.37,1.83a4.77,4.77,0,0,1-2.22,5.33,4.39,4.39,0,0,1-3.62.46,4.65,4.65,0,0,1-3.07-2.76,6.64,6.64,0,0,1-.3-1.08c-.28-1.37-.53-2.75-.81-4.12l-.69-3.36c-.18-.88-.34-1.75-.51-2.63s-.36-1.73-.53-2.59-.34-1.75-.52-2.63c-.12-.62-.26-1.24-.38-1.87s-.24-1.22-.36-1.83-.24-1.21-.35-1.81-.26-1.33-.4-2-.25-1.23-.37-1.85-.25-1.23-.38-1.85c0-.29-.12-.59-.17-.88Z" transform="translate(-5.8 -42.09)"/></g></g></svg>